<svg width="35" height="35" viewBox="0 0 35 35" fill="none" xmlns="http://www.w3.org/2000/svg">
<path d="M35 34.9712H0V0H35V34.9712Z" fill="black"/>
<path d="M14.4832 17.223L18.9572 9.47837C18.9916 9.4203 19.0563 9.31274 19.0563 9.31274C19.0563 9.31274 18.9853 9.18365 18.9572 9.13418L17.7968 7.12488C17.7322 7.01086 17.4996 6.62793 17.4996 6.62793C17.4996 6.62793 17.2671 7.01086 17.2025 7.12488L6.4028 25.8152C6.3382 25.9293 6.10352 26.3315 6.10352 26.3315C6.10352 26.3315 6.56642 26.3294 6.69991 26.3294H9.02305C9.08765 26.3294 9.21253 26.3315 9.21253 26.3315C9.21253 26.3315 9.29004 26.2089 9.32017 26.1573L12.5282 20.6048C12.5928 20.4908 12.8254 20.1186 12.8254 20.1186C12.8254 20.1186 13.0579 20.4908 13.1225 20.6048L16.3327 26.1595C16.3628 26.2111 16.4382 26.3315 16.4382 26.3315H18.9529C19.0993 26.3315 19.5536 26.3294 19.5536 26.3294C19.5536 26.3294 19.3103 25.9206 19.25 25.8174L14.4832 17.5651C14.4531 17.5155 14.382 17.3951 14.382 17.3951C14.382 17.3951 14.4509 17.2788 14.4832 17.223Z" fill="white"/>
<path d="M20.3185 12.5139L19.1581 14.5232C19.1279 14.5749 19.0547 14.6996 19.0547 14.6996C19.0547 14.6996 19.1257 14.8136 19.1581 14.8674L23.927 23.1198C23.9916 23.2317 24.2328 23.6361 24.2328 23.6361C24.2328 23.6361 23.7655 23.6361 23.6299 23.6361H21.7029C21.5716 23.6361 21.1043 23.6339 21.1043 23.6339C21.1043 23.6339 21.3391 24.0362 21.4058 24.1503L22.5663 26.1596C22.5964 26.2112 22.6719 26.3316 22.6719 26.3316H28.8942C28.8942 26.3316 28.6595 25.9207 28.5992 25.8175L20.9127 12.5161C20.8481 12.4042 20.62 12.0234 20.62 12.0234C20.62 12.0234 20.3853 12.4021 20.3185 12.5161V12.5139Z" fill="white"/>
</svg>
